<?xml version="1.0" standalone="no"?>
<!DOCTYPE svg PUBLIC "-//W3C//DTD SVG 20010904//EN"
 "http://www.w3.org/TR/2001/REC-SVG-20010904/DTD/svg10.dtd">
<svg version="1.0" xmlns="http://www.w3.org/2000/svg"
 width="480.000000pt" height="480.000000pt" viewBox="0 0 480.000000 480.000000"
 preserveAspectRatio="xMidYMid meet">
<metadata>
Created by potrace 1.16, written by Peter Selinger 2001-2019
</metadata>
<g transform="translate(0.000000,480.000000) scale(0.100000,-0.100000)"
fill="#000000" stroke="none">
<path d="M2120 4665 c-369 -50 -710 -176 -1005 -374 -542 -363 -901 -930
-1000 -1578 -68 -448 15 -952 226 -1374 293 -588 848 -1033 1488 -1194 364
-91 810 -87 1171 11 381 103 764 330 1044 618 268 276 446 581 559 956 70 232
102 528 86 793 -19 310 -91 579 -234 872 -113 233 -227 395 -405 579 -148 153
-294 270 -466 373 -255 153 -508 246 -829 305 -145 26 -483 33 -635 13z m543
-120 c413 -54 747 -191 1061 -434 193 -150 388 -360 516 -556 66 -102 179
-333 220 -450 145 -420 159 -918 36 -1341 -167 -573 -585 -1072 -1128 -1344
-191 -96 -435 -174 -643 -205 -151 -23 -519 -24 -665 -1 -271 42 -601 164
-815 301 -204 130 -409 314 -563 504 -122 152 -266 399 -322 556 -61 171 -73
208 -95 305 -89 389 -70 834 51 1188 184 543 575 996 1080 1254 315 161 622
235 981 237 101 1 219 -5 286 -14z"/>
<path d="M1732 3821 c-63 -22 -123 -76 -155 -141 l-22 -45 -3 -1242 c-2 -1226
-2 -1242 18 -1295 29 -79 79 -132 146 -158 55 -20 68 -21 708 -18 l651 3 51
27 c61 32 105 85 128 151 14 43 16 170 16 1271 0 1362 4 1285 -69 1367 -21 24
-60 55 -87 69 l-49 25 -640 2 c-601 2 -643 2 -693 -16z m1284 -181 c18 0 56
-38 49 -50 -6 -10 -1173 -14 -1258 -4 l-58 7 22 23 22 24 591 2 c325 2 597 2
604 1 8 -2 20 -3 28 -3z m52 -1131 l-3 -880 -625 0 c-344 0 -640 0 -657 1
l-33 0 0 873 c0 481 3 877 7 880 3 4 300 7 660 7 l653 0 -2 -881z m2 -1216 c0
-113 -3 -140 -17 -155 -15 -17 -48 -18 -640 -18 -610 0 -623 0 -643 20 -18 18
-20 33 -20 148 0 71 3 132 7 135 3 4 300 7 660 7 l653 0 0 -137z"/>
<path d="M2347 3228 c-12 -9 -19 -34 -24 -80 -5 -57 -9 -68 -30 -77 -38 -17
-51 -14 -97 29 -24 22 -50 40 -58 40 -9 0 -36 -21 -62 -47 -39 -41 -44 -50
-33 -65 6 -9 25 -35 40 -57 26 -36 28 -43 18 -74 -13 -38 -31 -47 -97 -47 -22
0 -45 -5 -52 -12 -7 -7 -12 -40 -12 -79 0 -76 3 -79 93 -79 46 0 49 -2 64 -37
17 -42 15 -47 -41 -118 l-29 -36 49 -50 c26 -27 54 -49 61 -49 6 0 33 18 58
40 49 42 59 46 98 31 21 -8 25 -18 30 -77 4 -37 10 -71 14 -75 13 -12 127 -21
142 -11 8 6 15 37 18 76 5 53 10 70 27 81 32 23 54 18 106 -26 58 -49 71 -47
124 16 42 51 43 43 -17 118 -26 33 -28 39 -17 71 11 33 14 35 68 41 31 3 64 7
72 8 12 2 16 20 18 78 3 86 1 88 -83 89 -49 0 -57 6 -74 48 -13 31 -12 34 29
87 l43 56 -29 32 c-44 49 -65 67 -79 67 -8 0 -35 -18 -60 -40 -49 -42 -59 -46
-98 -31 -22 9 -25 17 -29 81 -4 46 -11 75 -19 81 -21 13 -113 11 -132 -3z
m124 -343 c91 -48 90 -197 -3 -236 -67 -28 -131 -8 -168 54 -38 62 -17 143 47
176 46 24 84 26 124 6z"/>
<path d="M1944 2137 c-3 -8 -4 -52 -2 -98 l3 -84 465 0 465 0 0 95 0 95 -463
3 c-380 2 -463 0 -468 -11z"/>
<path d="M1947 1923 c-14 -13 -8 -170 7 -182 9 -8 140 -10 467 -9 l454 3 0 95
0 95 -461 3 c-253 1 -464 -1 -467 -5z"/>
<path d="M2354 1361 c-36 -22 -58 -75 -48 -115 10 -42 59 -76 107 -76 45 1 63
11 90 50 32 46 12 111 -43 144 -37 21 -68 20 -106 -3z"/>
</g>
</svg>
